HIERARCHY
ROOT root
{
	OFFSET 0.000000 0.000000 0.000000
	CHANNELS 6 Xposition Yposition Zposition Zrotation Yrotation Xrotation
	JOINT lhip
	{
		OFFSET 0.058581 -0.082280 -0.017664
		CHANNELS 3 Zrotation Yrotation Xrotation
		JOINT lknee
		{
			OFFSET 0.043451 -0.386469 0.008037
			CHANNELS 3 Zrotation Yrotation Xrotation
			JOINT lankle
			{
				OFFSET -0.014790 -0.426874 -0.037428
				CHANNELS 3 Zrotation Yrotation Xrotation
				JOINT ltoe
				{
					OFFSET 0.041054 -0.060286 0.122042
					CHANNELS 3 Zrotation Yrotation Xrotation
					End Site
					{
						OFFSET 0.000000 0.000000 0.000000
					}
				}
			}
		}
	}
	JOINT rhip
	{
		OFFSET -0.060310 -0.090513 -0.013543
		CHANNELS 3 Zrotation Yrotation Xrotation
		JOINT rknee
		{
			OFFSET -0.043257 -0.383688 -0.004843
			CHANNELS 3 Zrotation Yrotation Xrotation
			JOINT rankle
			{
				OFFSET 0.019056 -0.420046 -0.034562
				CHANNELS 3 Zrotation Yrotation Xrotation
				JOINT rtoe
				{
					OFFSET -0.034840 -0.062106 0.130323
					CHANNELS 3 Zrotation Yrotation Xrotation
					End Site
					{
						OFFSET 0.000000 0.000000 0.000000
					}
				}
			}
		}
	}
	JOINT lowerback
	{
		OFFSET 0.004439 0.124404 -0.038385
		CHANNELS 3 Zrotation Yrotation Xrotation
		JOINT upperback
		{
			OFFSET 0.004488 0.137956 0.026820
			CHANNELS 3 Zrotation Yrotation Xrotation
			JOINT chest
			{
				OFFSET -0.002265 0.056032 0.002855
				CHANNELS 3 Zrotation Yrotation Xrotation
				JOINT lowerneck
				{
					OFFSET -0.013390 0.211636 -0.033468
					CHANNELS 3 Zrotation Yrotation Xrotation
					JOINT upperneck
					{
						OFFSET 0.010113 0.088937 0.050410
						CHANNELS 3 Zrotation Yrotation Xrotation
						End Site
						{
							OFFSET 0.000000 0.000000 0.000000
						}
					}
				}
				JOINT lclavicle
				{
					OFFSET 0.071702 0.114000 -0.018898
					CHANNELS 3 Zrotation Yrotation Xrotation
					JOINT lshoulder
					{
						OFFSET 0.122921 0.045205 -0.019046
						CHANNELS 3 Zrotation Yrotation Xrotation
						JOINT lelbow
						{
							OFFSET 0.255332 -0.015649 -0.022946
							CHANNELS 3 Zrotation Yrotation Xrotation
							JOINT lwrist
							{
								OFFSET 0.265709 0.012698 -0.007375
								CHANNELS 3 Zrotation Yrotation Xrotation
								End Site
								{
									OFFSET 0.000000 0.000000 0.000000
								}
							}
						}
					}
				}
				JOINT rclavicle
				{
					OFFSET -0.082954 0.112472 -0.023707
					CHANNELS 3 Zrotation Yrotation Xrotation
					JOINT rshoulder
					{
						OFFSET -0.113228 0.046853 -0.008472
						CHANNELS 3 Zrotation Yrotation Xrotation
						JOINT relbow
						{
							OFFSET -0.260127 -0.014369 -0.031269
							CHANNELS 3 Zrotation Yrotation Xrotation
							JOINT rwrist
							{
								OFFSET -0.269108 0.006794 -0.006027
								CHANNELS 3 Zrotation Yrotation Xrotation
								End Site
								{
									OFFSET 0.000000 0.000000 0.000000
								}
							}
						}
					}
				}
			}
		}
	}
}
MOTION
Frames: 14
Frame Time: 0.033333
-0.793308 -1.796893 0.981047 160.193979 -0.650903 92.806431 7.100719 4.113963 2.820056 -6.658913 -6.438022 -1.733171 4.536017 6.118668 -7.542964 0.000000 -0.000000 0.000000 -1.860323 -3.666552 -1.824520 1.112396 -2.618626 9.330221 -2.620272 -8.412903 -13.782711 0.000000 -0.000000 0.000000 -1.421600 1.267599 -1.576108 0.630299 0.858897 0.520664 -0.665802 -0.222375 1.004567 -1.436022 -1.842526 12.399761 -0.782417 5.143788 17.054457 -25.619609 9.965705 9.967538 -65.000640 0.323531 12.127910 -13.976217 -61.774517 41.544522 22.836818 -4.158356 -6.479885 18.512647 -3.818357 10.251415 67.619614 -1.691264 20.011979 165.098445 83.186064 -179.005875 -14.884508 8.950837 -37.222087 
-0.792851 -1.797047 0.980163 160.157223 -0.412111 93.004061 7.425774 3.966765 2.620266 -6.720362 -6.563513 -1.733310 4.374358 6.393444 -7.825777 0.000000 -0.000000 0.000000 -1.448560 -3.119193 -2.388873 1.037355 -1.865822 10.280238 -2.743471 -8.688387 -13.754099 0.000000 -0.000000 0.000000 -1.018751 0.947818 -1.592930 0.475080 1.357580 0.258135 -0.590218 -0.324648 0.929937 -0.762701 -4.438436 11.688365 -0.962106 3.204157 18.963455 -25.411277 10.204304 10.599833 -65.411656 -0.216469 11.502097 -12.702469 -62.218314 40.720838 22.133610 -4.200889 -7.215821 17.972496 -3.560145 10.734531 68.229765 -1.597737 19.648488 165.728806 83.030126 -177.263761 -13.873533 9.454052 -38.372473 
-0.792380 -1.796907 0.979386 160.201334 -0.405215 93.128835 7.417451 3.815547 2.876070 -6.603620 -6.903442 -2.379613 4.622202 6.541119 -7.775289 0.000000 -0.000000 0.000000 -1.355758 -2.797698 -3.236487 1.014317 -1.607700 11.830477 -2.958930 -8.841571 -14.269927 0.000000 -0.000000 0.000000 -1.039399 0.856509 -1.624948 0.550980 1.604380 0.274982 -0.575570 -0.306402 1.195372 -0.701880 -4.684978 11.037498 -1.062007 2.761230 18.780825 -25.373110 10.423475 10.259889 -65.510473 -0.561384 11.342098 -11.838891 -62.677929 39.799294 22.094950 -4.066871 -7.568804 17.884976 -3.610930 10.447924 68.105548 -1.473048 19.757555 165.128459 82.826420 -177.384841 -13.600607 9.582281 -38.771008 
-0.791261 -1.795639 0.977860 160.420046 -0.489203 93.285075 7.429407 3.474548 3.638807 -6.417587 -7.761996 -3.810405 4.754975 6.690053 -7.690529 0.000000 -0.000000 0.000000 -1.389266 -2.293823 -4.158931 1.054952 -1.599240 13.546600 -3.109915 -9.228437 -15.129393 0.000000 -0.000000 0.000000 -1.164612 0.705599 -1.703826 0.664756 1.812185 0.426815 -0.652571 -0.237030 1.720270 -0.592000 -3.877424 10.165324 -1.201832 2.805872 17.748296 -25.258789 10.439588 9.608178 -65.405608 -0.359932 11.962012 -12.233847 -62.631266 40.349830 22.267331 -4.072381 -8.078589 18.052319 -3.748351 9.713073 67.804465 -1.385204 20.275583 165.136357 82.670678 -176.908395 -13.240182 9.535629 -38.981001 
-0.790103 -1.793986 0.976852 160.711340 -0.462478 93.317458 7.587542 3.233790 4.350876 -6.272210 -8.439779 -4.928026 4.758428 6.729535 -7.825888 0.000000 -0.000000 0.000000 -1.272282 -2.006935 -4.367390 1.034191 -1.743863 14.190332 -3.141788 -9.642247 -15.724088 0.000000 -0.000000 0.000000 -1.171122 0.556521 -1.735186 0.744468 1.905684 0.579285 -0.665382 -0.198248 1.901128 -0.593212 -3.635269 9.709168 -1.263346 2.738595 17.263467 -25.251261 10.386826 9.323193 -65.323485 -0.156081 12.360611 -12.784228 -62.528980 40.922322 22.233931 -4.175601 -8.221021 18.095203 -3.784262 9.305623 67.722040 -1.530262 20.470173 165.197300 82.650911 -176.772851 -12.702927 9.847146 -39.284627 
-0.787777 -1.790674 0.975881 161.031392 -0.329612 93.213610 7.904284 2.938452 4.780605 -6.329922 -8.803553 -4.876126 4.851136 6.982929 -8.336833 0.000000 -0.000000 0.000000 -0.981875 -1.804485 -4.228626 0.982085 -2.059508 14.674870 -3.007526 -10.287232 -16.660750 0.000000 -0.000000 0.000000 -1.181974 0.506372 -1.722533 0.906838 2.051629 0.801865 -0.652735 -0.082104 2.137555 -0.513963 -3.528349 9.133197 -1.254384 2.653413 16.780672 -25.394658 10.393893 9.125769 -65.176177 -0.239766 12.412398 -11.868584 -62.832935 39.583720 21.637322 -4.323488 -8.188388 18.303637 -3.903964 8.838726 67.420814 -1.921195 20.522967 163.728402 82.574469 -178.281386 -11.054920 10.993348 -40.080617 
-0.785206 -1.786465 0.974830 161.331938 -0.227463 93.355904 7.999271 3.109098 4.858675 -6.222926 -8.320822 -4.663179 4.668656 6.734327 -9.244962 0.000000 -0.000000 0.000000 -0.734918 -1.570830 -4.014463 0.903237 -2.053813 14.789094 -2.899295 -10.624547 -17.295251 0.000000 -0.000000 0.000000 -1.135884 0.487578 -1.903419 0.978476 2.237861 0.952735 -0.638084 -0.014210 2.399977 -0.428680 -3.572848 8.435178 -1.318608 2.553525 16.307282 -25.655435 10.608235 8.905289 -64.946416 -0.373414 12.213323 -10.738278 -63.251043 37.838712 20.903138 -4.568266 -7.912848 18.567325 -4.052484 8.471695 67.113940 -2.207176 20.704387 160.743271 82.748464 178.505407 -9.696387 11.991755 -40.602018 
-0.782314 -1.781756 0.973606 161.531618 -0.124535 93.801762 8.017647 3.732527 5.413073 -5.588749 -7.606303 -5.763179 4.332633 5.505457 -9.607077 0.000000 -0.000000 0.000000 -0.435318 -1.251264 -4.023102 0.835730 -1.776187 14.875827 -2.905651 -10.784101 -17.555813 0.000000 -0.000000 0.000000 -1.054655 0.420927 -2.236790 0.994540 2.458841 1.159153 -0.663945 0.072612 2.507409 -0.248284 -3.707296 7.869772 -1.357566 2.292466 15.483502 -25.838424 10.772107 8.902388 -64.535343 0.257808 12.629409 -13.010934 -63.030006 40.079936 20.753553 -5.041380 -7.639328 18.770604 -4.095930 8.285651 66.841081 -2.306909 21.007625 158.095988 83.178951 175.488343 -9.840347 11.955059 -40.943548 
-0.778625 -1.776223 0.972229 161.475391 -0.073601 94.263399 8.057296 4.042309 5.812137 -5.204792 -7.353509 -6.331641 4.348205 5.207593 -9.855290 0.000000 -0.000000 0.000000 -0.170768 -1.015597 -4.106877 0.786411 -1.573508 15.137836 -2.973445 -10.929509 -18.033173 0.000000 -0.000000 0.000000 -1.108945 0.488134 -2.415052 0.988191 2.675371 1.374040 -0.632120 0.175956 2.377008 -0.118665 -4.464535 7.790551 -1.225298 1.525076 14.768102 -25.901167 10.928118 9.116940 -64.207265 0.975854 12.760576 -14.283767 -62.865048 41.235572 20.625104 -5.357268 -7.491635 18.751975 -3.897366 8.317730 66.858085 -2.489800 21.106928 153.573425 83.605932 170.838600 -9.770030 11.952230 -41.225950 
-0.773366 -1.768447 0.970356 161.355806 -0.171537 94.776115 7.782134 4.033814 5.695465 -4.612769 -7.827715 -5.848917 4.792686 5.953262 -10.639480 0.000000 -0.000000 0.000000 -0.049969 -0.770983 -4.464075 0.814496 -1.205057 16.149777 -2.957766 -11.367445 -19.513285 0.000000 -0.000000 0.000000 -1.522709 0.659637 -2.148191 0.936731 2.889145 1.406763 -0.488276 0.226449 1.910630 0.155167 -6.640271 8.157003 -0.884767 -0.391612 14.322220 -25.592866 11.136479 9.852633 -64.233256 1.474391 12.469205 -15.122126 -62.838403 42.020986 20.849507 -5.379653 -7.712032 18.334409 -3.344063 8.675120 67.641897 -2.918621 20.944156 146.642911 84.316891 163.722895 -10.206980 11.786324 -42.480051 
-0.768846 -1.761936 0.967341 161.275407 -0.130912 97.250828 7.720576 4.803569 2.092517 -4.478817 -5.167568 -2.851288 3.976451 2.665088 -14.696203 0.000000 -0.000000 0.000000 0.077257 0.387778 -8.317188 0.642175 -2.474638 19.655276 -2.318653 -10.786342 -23.113726 0.000000 -0.000000 0.000000 -2.091405 0.791578 -4.935919 1.098095 2.730565 1.340977 -0.472997 0.237354 3.154472 -0.053099 -6.126039 7.980713 0.276870 -0.791563 9.696194 -25.126016 10.355558 8.505216 -64.953174 3.400268 11.961144 -12.838085 -63.260760 37.712994 17.967550 -8.055906 -5.435789 18.250518 -3.147686 9.725035 68.173055 -1.994506 19.343929 127.584515 83.945319 142.323105 -10.078914 10.443686 -41.516123 
-0.765793 -1.754898 0.963429 161.579373 -1.186325 98.356431 6.073305 3.892708 0.708160 -3.425179 -5.210499 -1.449394 4.395060 3.452397 -16.704867 0.000000 -0.000000 0.000000 -1.536844 0.726553 -11.261040 1.409914 -3.151157 24.135661 -1.544740 -10.691890 -25.678312 0.000000 -0.000000 0.000000 -3.577663 0.773917 -4.777963 0.767858 2.671670 0.781618 -0.827847 -0.045359 4.447523 1.332732 -3.455098 2.928198 -0.070735 -2.358523 8.185545 -24.629212 10.599251 7.061420 -63.941694 2.931993 13.025662 -11.900305 -63.752183 35.714296 18.128447 -8.259999 -5.818475 19.249632 -3.537014 8.328431 68.299340 -2.259056 21.199450 123.306673 85.477272 137.165117 -10.046192 9.748688 -42.668505 
-0.759994 -1.746958 0.957638 161.810642 -2.146859 98.720591 5.123903 4.493967 0.109408 -2.777328 -4.975006 0.369967 4.484429 2.583878 -18.590548 0.000000 -0.000000 0.000000 -2.954517 -0.052380 -14.465638 2.094530 -4.733219 30.401226 -0.874770 -10.420649 -27.870196 0.000000 -0.000000 0.000000 -5.413883 0.844062 -3.377038 0.464725 2.389283 0.607673 -0.902781 -0.181157 4.499974 2.130089 -2.953361 0.727530 0.625290 -4.533354 5.360002 -24.287719 9.500479 6.322158 -62.632295 2.256952 13.759421 -12.314640 -63.999600 35.124968 18.892897 -8.405329 -5.771735 19.932460 -2.876704 7.796447 68.603729 -2.864469 21.805244 127.380593 86.484471 139.856267 -12.071468 7.872149 -42.561013 
-0.750632 -1.738655 0.950627 161.895113 -2.653969 98.222931 5.233627 6.341260 0.111738 -2.507911 -4.389260 3.414718 3.553726 0.714566 -20.667877 0.000000 -0.000000 0.000000 -3.627963 -1.429391 -17.508948 2.294153 -6.240814 38.305107 -0.444959 -9.566148 -28.422824 0.000000 -0.000000 0.000000 -6.998558 1.132431 -0.883486 0.086862 2.041922 1.034184 -0.838066 -0.123400 3.975261 2.437738 -2.967342 -1.080274 2.228969 -6.312912 1.738892 -24.604013 6.749589 5.577380 -61.124942 1.409284 14.095828 -12.730635 -63.976743 34.340198 20.149984 -8.708313 -5.067662 20.772518 -1.373070 7.573831 69.271040 -3.813884 21.274567 166.365137 86.766445 177.813440 -16.710342 5.176473 -40.202155 
